<?xml version="1.0" encoding="UTF-8" standalone="no"?>
<svg
   enable-background="new 0 0 64 64"
   height="64px"
   id="Layer_1"
   version="1.1"
   viewBox="0 0 64 64"
   width="64px"
   xml:space="preserve"
   sodipodi:docname="favicon.svg"
   inkscape:version="1.1.2 (0a00cf5339, 2022-02-04)"
   xmlns:inkscape="http://www.inkscape.org/namespaces/inkscape"
   xmlns:sodipodi="http://sodipodi.sourceforge.net/DTD/sodipodi-0.dtd"
   xmlns="http://www.w3.org/2000/svg"
   xmlns:svg="http://www.w3.org/2000/svg"><defs
     id="defs54" /><sodipodi:namedview
     id="namedview52"
     pagecolor="#ffffff"
     bordercolor="#666666"
     borderopacity="1.0"
     inkscape:pageshadow="2"
     inkscape:pageopacity="0.0"
     inkscape:pagecheckerboard="0"
     showgrid="false"
     inkscape:zoom="13.078125"
     inkscape:cx="22.709677"
     inkscape:cy="38.117085"
     inkscape:window-width="1916"
     inkscape:window-height="1009"
     inkscape:window-x="0"
     inkscape:window-y="33"
     inkscape:window-maximized="1"
     inkscape:current-layer="Layer_1" /><ellipse
     style="fill:#ff7f2a;fill-rule:evenodd;stroke-width:0.952898"
     id="path78"
     cx="31.994814"
     cy="38.312988"
     rx="27.114878"
     ry="25.427652" /><g
     id="fire-place_1_"><rect
       fill="#37474F"
       height="1"
       width="35.25"
       x="14.375"
       y="56"
       id="rect2" /><path
       d="M59,43.424v-0.45l-0.011-5.694c0.013,0-0.001-0.495-0.001-0.495c0-0.002-0.001-0.505-0.001-0.505   c-0.038-0.217-0.057-0.482-0.088-0.799c-0.079-0.843-0.225-1.835-0.4-2.72c-0.263-1.353-0.666-2.647-0.91-3.376l-0.019-0.057   c-0.006-0.019-0.142-0.41-0.142-0.41c-0.027-0.078-0.674-1.938-1.686-3.707c-0.698-1.272-1.57-2.447-2.033-3.041   c0.018-0.015-0.311-0.389-0.311-0.389l-0.319-0.389c-0.012,0.01-0.551-0.605-0.551-0.605c-0.73-0.763-1.438-1.426-2.104-1.973   c-0.817-0.666-1.668-1.278-2.316-1.67c-0.271-0.179-0.496-0.314-0.684-0.424c0.005-0.008-0.301-0.17-0.301-0.17   c-0.086-0.047-0.149-0.08-0.155-0.083c-0.011-0.005-1.132-0.6-1.132-0.6l-0.342-0.154c-0.631-0.286-1.416-0.643-2.197-0.901   c-0.683-0.269-1.358-0.455-1.954-0.619c-0.229-0.063-0.446-0.123-0.681-0.192l-1.167-0.256c-0.243-0.083-0.62-0.144-1.209-0.235   c-0.192-0.025-0.404-0.059-0.629-0.093c-0.598-0.092-1.276-0.196-1.948-0.237L32.5,13.033c0-0.047-0.639-0.029-0.639-0.029   L31.5,12.986c0,0.026-0.656,0.043-0.656,0.043l-2.543,0.15c-0.684,0.041-1.361,0.145-1.96,0.236   c-0.226,0.035-0.437,0.068-0.64,0.096c-0.586,0.091-0.961,0.152-1.203,0.234l-1.199,0.264c-0.197,0.061-0.414,0.119-0.644,0.184   c-0.596,0.164-1.271,0.351-1.929,0.609c-0.807,0.269-1.593,0.625-2.225,0.912l-1.049,0.541l-0.423,0.212   c-0.009,0.005-0.12,0.062-0.288,0.155l-0.174,0.09c-0.18,0.115-0.399,0.248-0.661,0.421c-0.667,0.403-1.517,1.016-2.335,1.683   c-0.658,0.539-1.365,1.203-2.117,1.988l-0.53,0.605c-0.012-0.01-0.317,0.362-0.317,0.362l-0.335,0.383   c-0.452,0.616-1.316,1.78-2.012,3.048C7.543,26.46,7.01,27.754,6.744,28.45c-0.004-0.001-0.13,0.349-0.13,0.349   C6.6,28.84,6.582,28.887,6.573,28.912l-0.167,0.471c-0.23,0.701-0.641,2.018-0.904,3.376c-0.177,0.889-0.322,1.881-0.4,2.72   c-0.031,0.317-0.051,0.583-0.064,0.802c-0.024-0.001-0.025,0.502-0.025,0.502c0,0.002-0.014,0.497-0.014,0.497   c0.013,0,0.003,5.694,0.003,5.694C5,42.974,5,43.424,5,43.424l-0.001,0.55L5,49.481v1V57h10V37.481C15,37.481,14.321,23,32.004,23   C49.688,23,49,37.481,49,37.481V57h10v-6.519v-1v-5.508C59.001,43.974,59,43.424,59,43.424z M57.999,42.974H50l-0.006-5.358   l7.995-0.298L57.999,42.974z M57.518,32.954c0.17,0.854,0.311,1.81,0.386,2.622c0.028,0.285,0.048,0.539,0.061,0.741l-4.276,0.16   l-3.723,0.139c-0.007-0.086-0.016-0.182-0.025-0.287c-0.052-0.547-0.147-1.204-0.266-1.803c-0.158-0.808-0.39-1.586-0.553-2.088   l4.411-1.591l3.116-1.124C56.875,30.406,57.27,31.674,57.518,32.954z M6.036,36.317c0.013-0.203,0.032-0.457,0.061-0.743   c0.075-0.81,0.216-1.765,0.386-2.622c0.251-1.292,0.642-2.549,0.869-3.229l3.134,1.13l4.394,1.585   c-0.156,0.479-0.391,1.264-0.553,2.088c-0.117,0.591-0.213,1.247-0.266,1.801c-0.01,0.105-0.019,0.202-0.025,0.289l-3.723-0.139   L6.036,36.317z M6.011,37.317l7.994,0.298L14,42.974H6.001L6.011,37.317z M14,56H6v-5.519h8V56z M6,49.481v-5.508h8v5.508H6z    M16.115,29.597c-0.398,0.692-0.715,1.434-0.899,1.9l-7.528-2.716c0.255-0.66,0.77-1.906,1.445-3.089   c0.656-1.196,1.475-2.303,1.928-2.886l6.168,5.102C16.934,28.297,16.492,28.916,16.115,29.597z M19.305,25.754   c-0.467,0.383-0.891,0.803-1.264,1.185l-0.175,0.2l-6.164-5.099l0.49-0.561c0.709-0.739,1.387-1.376,2.013-1.89   c0.782-0.637,1.592-1.221,2.236-1.611c0.238-0.157,0.449-0.286,0.618-0.385l3.894,6.993c-0.074,0.046-0.152,0.097-0.234,0.153   C20.34,24.964,19.865,25.305,19.305,25.754z M25.485,22.741c-0.157,0.052-0.337,0.101-0.528,0.153   c-0.379,0.104-0.811,0.221-1.184,0.377c-0.472,0.152-0.896,0.343-1.27,0.512l-0.675,0.322l-0.753-1.353l-3.138-5.636l0.978-0.492   c0.609-0.277,1.369-0.621,2.15-0.883c0.635-0.248,1.283-0.428,1.855-0.585c0.237-0.065,0.461-0.128,0.629-0.18l0.674-0.147   l1.645,7.828L25.485,22.741z M30.152,22.053l-1.008,0.087c-0.497,0.026-0.965,0.099-1.377,0.163   c-0.193,0.03-0.374,0.059-0.554,0.08c-0.136,0.021-0.259,0.042-0.368,0.063l-0.432-2.056l-1.212-5.774   c0.176-0.035,0.395-0.076,0.643-0.114c0.198-0.026,0.417-0.06,0.647-0.096c0.578-0.089,1.231-0.188,1.881-0.229l3.127-0.162v8   L30.152,22.053z M36.771,22.381c-0.165-0.02-0.346-0.048-0.539-0.078c-0.412-0.064-0.879-0.137-1.371-0.162l-1.044-0.09   L32.5,22.014v-8l3.139,0.164c0.638,0.039,1.292,0.139,1.869,0.228c0.231,0.036,0.449,0.069,0.637,0.095   c0.253,0.039,0.476,0.08,0.653,0.115l-1.644,7.83C37.041,22.425,36.914,22.402,36.771,22.381z M40.264,23.285   c-0.411-0.17-0.843-0.287-1.223-0.392c-0.191-0.053-0.37-0.102-0.577-0.165l-0.332-0.072l1.563-7.446l0.08-0.382l0.638,0.141   c0.205,0.061,0.429,0.123,0.667,0.188c0.572,0.157,1.221,0.337,1.879,0.595c0.756,0.252,1.515,0.596,2.125,0.873l0.979,0.492   l-2.406,4.322l-1.485,2.666l-0.675-0.324C41.121,23.613,40.697,23.424,40.264,23.285z M44.691,25.75   c-0.561-0.449-1.035-0.789-1.383-0.992c-0.093-0.064-0.182-0.121-0.262-0.171l3.894-6.993c0.172,0.101,0.389,0.232,0.635,0.396   c0.628,0.38,1.437,0.963,2.218,1.599c0.634,0.521,1.311,1.156,1.999,1.875l0.506,0.577l-6.164,5.099l-0.194-0.221   C45.585,26.556,45.159,26.135,44.691,25.75z M46.772,27.908l6.167-5.102c0.445,0.573,1.271,1.688,1.932,2.893   c0.675,1.181,1.188,2.428,1.44,3.082l-7.527,2.716c-0.184-0.466-0.499-1.204-0.896-1.893   C47.507,28.914,47.063,28.291,46.772,27.908z M58,56h-8v-5.519h8V56z M58,49.481h-8v-5.508h8V49.481z"
       fill="#37474F"
       id="path4" /><g
       id="g40"><g
         id="g8"><path
           d="M39.796,38.292c-1.626-1.712-5.622-3.614-6.025-6.827c-0.433,2.311-1.606,3.247-2.757,3.247     c-2.052,0-4.035-2.975-1.643-6.459c-6.654,5.291-2.428,9.638-2.428,12.449c0,1.408-0.725,2.054-1.56,2.054     c-1.128,0-2.456-1.182-2.456-3.258c-1.945,9.724,2.389,12.121,6.878,12.686c0.128-0.36,0.34-0.683,0.622-0.945     c-2.168-0.209-4.233-0.795-5.52-2.363c-1.082-1.321-1.563-3.279-1.437-5.842c0.579,0.469,1.256,0.723,1.912,0.723     c1.274,0,2.56-0.944,2.56-3.054c0-0.862-0.293-1.753-0.604-2.695c-0.591-1.788-1.235-3.743-0.03-5.973     c0.07,0.556,0.236,1.092,0.5,1.593c0.678,1.286,1.905,2.085,3.205,2.085c0.492,0,1.801-0.146,2.775-1.556     c0.938,1.376,2.346,2.456,3.563,3.389c0.673,0.516,1.309,1.004,1.719,1.436c2.044,2.153,2.603,5.146,1.458,7.81     c-1.132,2.634-3.632,4.27-6.765,4.511c0.268,0.27,0.463,0.598,0.579,0.958C41.749,51.355,44.477,43.225,39.796,38.292z"
           fill="#37474F"
           id="path6" /></g><g
         id="g16"><g
           id="g14"><g
             id="g12"><path
               d="M32.584,26.695c0.726,0.557,1.037,1.231,0.891,1.963c-0.177,0.883-0.96,1.541-1.543,1.541       c-0.199,0-0.377-0.076-0.545-0.23c-0.842-0.778-0.709-0.973,0.232-2.008C31.943,27.604,32.324,27.186,32.584,26.695       L32.584,26.695z M31.819,25.129c0.675,1.98-3.827,3.064-1.112,5.574c0.375,0.346,0.799,0.496,1.225,0.496       C34.164,31.199,36.447,27.061,31.819,25.129L31.819,25.129z"
               fill="#37474F"
               id="path10" /></g></g></g><g
         id="g24"><g
           id="g22"><g
             id="g20"><path
               d="M37.669,45.453c0.341,1.061-0.367,1.895-0.979,1.895c-0.16,0-0.314-0.058-0.441-0.185       c-0.741-0.741,1.11-1.758,1.11-2.593c0-3.335-4.445-2.592-3.912-6.726c-4.237,1.539-0.061,5.104-1.156,7.322       c-0.333,0.676-0.838,0.971-1.362,0.971c-0.241,0-0.486-0.063-0.72-0.18c-0.844-0.422-0.865-1.805-0.918-2.666       c-0.791,0.414-2.041,0.666-2.25,2.166c-0.137,0.991,1.428,1.705,0.565,2.265c-0.263,0.171-0.49,0.246-0.69,0.246       c-0.621,0-0.984-0.731-1.357-1.65c-0.508,1.612,0.299,4.659,4.329,5.682c0.148-0.334,0.363-0.636,0.654-0.869       c-1.906-0.385-2.923-1.212-3.456-1.939c-0.055-0.073-0.104-0.147-0.15-0.223c0.396-0.004,0.805-0.141,1.215-0.407       c0.482-0.313,0.643-0.705,0.693-0.979c0.121-0.649-0.25-1.158-0.52-1.528c-0.104-0.144-0.278-0.383-0.292-0.458       c0.048-0.349,0.173-0.565,0.413-0.751c0.156,0.792,0.5,1.6,1.316,2.008c0.378,0.189,0.771,0.285,1.167,0.285       c0.956,0,1.78-0.557,2.26-1.528c0.604-1.223,0.152-2.551-0.245-3.724c-0.354-1.041-0.551-1.699-0.387-2.178       c0.394,1.435,1.463,2.188,2.308,2.784c0.96,0.677,1.472,1.081,1.494,2.012c-0.065,0.126-0.277,0.375-0.408,0.528       c-0.446,0.525-1.491,1.755-0.408,2.838c0.308,0.308,0.716,0.478,1.148,0.478c0.44,0,0.878-0.175,1.237-0.483       c0.096,0.417,0.063,0.806-0.1,1.164c-0.539,1.188-2.387,2.037-4.078,2.259c0.262,0.261,0.461,0.573,0.58,0.921       C37.479,51.62,40.93,49.18,37.669,45.453z"
               fill="#37474F"
               id="path18" /></g></g></g><g
         id="g38"><g
           id="g36"><g
             id="g30"><path
               d="M43.819,52.284l-5.658-1.925c-0.37,0.247-0.76,0.469-1.175,0.656l6.513,2.216       c0.227,0.076,0.409,0.236,0.516,0.451c0.107,0.218,0.123,0.464,0.045,0.694c-0.124,0.366-0.467,0.611-0.854,0.611       c-0.097,0-0.194-0.016-0.289-0.049l-8.849-3.007c0.221,0.343,0.352,0.747,0.367,1.181l8.159,2.773       c0.202,0.069,0.409,0.102,0.611,0.102c0.792,0,1.532-0.499,1.801-1.29C45.345,53.703,44.814,52.62,43.819,52.284z"
               fill="#37474F"
               id="path26" /><path
               d="M29.907,52.323l-7.687,2.622c-0.096,0.032-0.193,0.049-0.291,0.049c-0.389,0-0.732-0.246-0.857-0.613       c-0.078-0.229-0.063-0.474,0.045-0.69c0.105-0.216,0.289-0.377,0.518-0.455l5.997-2.045c-0.485-0.158-0.955-0.342-1.39-0.583       l-4.93,1.682c-0.994,0.338-1.525,1.42-1.187,2.415c0.271,0.792,1.011,1.29,1.804,1.29c0.203,0,0.409-0.033,0.611-0.102       l7.217-2.462c-0.008-0.078-0.023-0.153-0.023-0.232C29.734,52.889,29.798,52.595,29.907,52.323z"
               fill="#37474F"
               id="path28" /></g><g
             id="g34"><path
               d="M32.09,51.345c1.022,0,1.854,0.831,1.854,1.854c0,1.023-0.832,1.855-1.854,1.855       c-1.023,0-1.855-0.832-1.855-1.855C30.234,52.176,31.066,51.345,32.09,51.345L32.09,51.345z M32.09,50.345       c-1.578,0-2.855,1.276-2.855,2.854s1.277,2.855,2.855,2.855c1.577,0,2.854-1.278,2.854-2.855S33.667,50.345,32.09,50.345       L32.09,50.345z"
               fill="#37474F"
               id="path32" /></g></g></g></g><path
       d="M19.85,40.5c-0.276,0-0.5-0.224-0.5-0.5c0-0.263-0.085-0.37-0.24-0.564   c-0.193-0.242-0.459-0.574-0.459-1.188s0.266-0.946,0.459-1.188c0.155-0.194,0.24-0.302,0.24-0.564s-0.085-0.369-0.24-0.563   c-0.193-0.243-0.459-0.575-0.459-1.188c0-0.611,0.266-0.942,0.459-1.185c0.155-0.193,0.24-0.3,0.24-0.561   c0-0.276,0.224-0.5,0.5-0.5s0.5,0.224,0.5,0.5c0,0.612-0.266,0.943-0.46,1.186c-0.154,0.193-0.239,0.299-0.239,0.56   c0,0.263,0.085,0.369,0.24,0.563c0.193,0.243,0.459,0.575,0.459,1.188c0,0.613-0.265,0.945-0.459,1.188   c-0.154,0.194-0.24,0.302-0.24,0.565c0,0.263,0.085,0.37,0.24,0.564c0.193,0.242,0.459,0.574,0.459,1.188   C20.35,40.276,20.126,40.5,19.85,40.5z"
       fill="#37474F"
       id="path42" /><path
       d="M22.85,36.5c-0.276,0-0.5-0.224-0.5-0.5c0-0.263-0.085-0.37-0.24-0.564   c-0.193-0.242-0.459-0.574-0.459-1.188s0.266-0.946,0.459-1.188c0.155-0.194,0.24-0.302,0.24-0.564s-0.085-0.369-0.24-0.563   c-0.193-0.243-0.459-0.575-0.459-1.188c0-0.611,0.266-0.942,0.459-1.185c0.155-0.193,0.24-0.3,0.24-0.561   c0-0.276,0.224-0.5,0.5-0.5s0.5,0.224,0.5,0.5c0,0.612-0.266,0.943-0.46,1.186c-0.154,0.193-0.239,0.299-0.239,0.56   c0,0.263,0.085,0.369,0.24,0.563c0.193,0.243,0.459,0.575,0.459,1.188c0,0.613-0.265,0.945-0.459,1.188   c-0.154,0.194-0.24,0.302-0.24,0.565c0,0.263,0.085,0.37,0.24,0.564c0.193,0.242,0.459,0.574,0.459,1.188   C23.35,36.276,23.126,36.5,22.85,36.5z"
       fill="#37474F"
       id="path44" /><path
       d="M42.85,38.5c-0.276,0-0.5-0.224-0.5-0.5c0-0.263-0.085-0.37-0.24-0.564   c-0.193-0.242-0.459-0.574-0.459-1.188s0.266-0.946,0.459-1.188c0.155-0.194,0.24-0.302,0.24-0.564s-0.085-0.369-0.24-0.563   c-0.193-0.243-0.459-0.575-0.459-1.188c0-0.611,0.266-0.942,0.459-1.185c0.155-0.193,0.24-0.3,0.24-0.561   c0-0.276,0.224-0.5,0.5-0.5s0.5,0.224,0.5,0.5c0,0.612-0.266,0.943-0.46,1.186c-0.154,0.193-0.239,0.299-0.239,0.56   c0,0.263,0.085,0.369,0.24,0.563c0.193,0.243,0.459,0.575,0.459,1.188c0,0.613-0.265,0.945-0.459,1.188   c-0.154,0.194-0.24,0.302-0.24,0.565c0,0.263,0.085,0.37,0.24,0.564c0.193,0.242,0.459,0.574,0.459,1.188   C43.35,38.276,43.126,38.5,42.85,38.5z"
       fill="#37474F"
       id="path46" /><path
       d="M39.85,34.5c-0.276,0-0.5-0.224-0.5-0.5c0-0.263-0.085-0.37-0.24-0.564   c-0.193-0.242-0.459-0.574-0.459-1.188s0.266-0.946,0.459-1.188c0.155-0.194,0.24-0.302,0.24-0.564s-0.085-0.369-0.24-0.563   c-0.193-0.243-0.459-0.575-0.459-1.188c0-0.611,0.266-0.942,0.459-1.185c0.155-0.193,0.24-0.3,0.24-0.561   c0-0.276,0.224-0.5,0.5-0.5s0.5,0.224,0.5,0.5c0,0.612-0.266,0.943-0.46,1.186c-0.154,0.193-0.239,0.299-0.239,0.56   c0,0.263,0.085,0.369,0.24,0.563c0.193,0.243,0.459,0.575,0.459,1.188c0,0.613-0.265,0.945-0.459,1.188   c-0.154,0.194-0.24,0.302-0.24,0.565c0,0.263,0.085,0.37,0.24,0.564c0.193,0.242,0.459,0.574,0.459,1.188   C40.35,34.276,40.126,34.5,39.85,34.5z"
       fill="#37474F"
       id="path48" /></g></svg>
